<svg xmlns="http://www.w3.org/2000/svg" xmlns:xlink="http://www.w3.org/1999/xlink" viewBox="0 0 169.81 204.24">
    <defs>
        <style>
            .cls-1{fill:none;}.cls-2{clip-path:url(#clip-path);}.cls-3{fill:#ff1d25;}.cls-4{fill:#999;}.cls-5{fill:#fff;}
        </style>
        <clipPath id="clip-path" transform="translate(0 0)">
            <rect width="169.82" height="204.24" class="cls-1"/>
        </clipPath>
    </defs>
    <title>
        Ресурс 1
    </title>
    <g id="Слой_2" data-name="Слой 2">
        <g id="Слой_1-2" data-name="Слой 1">
            <g class="cls-2">
                <path d="M79.62,167a1,1,0,0,1,.77-1.64H92.52a1,1,0,0,0,1-1V124.82a1,1,0,0,1,.94-1c.34,0,.65,0,1,0,10.31,0,20.61,0,30.92,0,1.54,0,2,.37,2,2-.07,12.49,0,25,0,37.46,0,2.16,0,2.16,2.11,2.16h11.11a1,1,0,0,1,.77,1.64l-30.58,36.9a1,1,0,0,1-1.54,0L79.62,167" class="cls-3" transform="translate(0 0)"/>
                <rect width="108" height="46.75" y="31.88" class="cls-3"/>
                <path d="M80.07,181.06q-27.49,0-55,0H22.75v-2.2q0-44.83,0-89.66c0-.23,0-.43,0-.62V82.89H14.68q0,3.43,0,6.86,0,48.51,0,97V189H88.24c-2-2.38-3.81-4.52-5.54-6.75a3,3,0,0,0-2.63-1.2" class="cls-4" transform="translate(0 0)"/>
                <path d="M168.53,40.22Q148.94,20.7,129.43,1.11A3.49,3.49,0,0,0,126.71,0Q71.65,0,16.59,0c-1.45,0-1.95.34-1.94,1.89,0,8.58,0,17.16,0,25.74h8.09c0-5.95,0-11.89,0-17.84,0-.53.06-1.05.1-1.75h97.61c2.13,0,2.14,0,2.14,2.12q0,17,0,34c0,3.8,1.34,5.13,5.11,5.13h32.07c.63,0,1.25.05,1.82.08V181.08h-2.07c-5.94,0-11.89,0-17.83,0-.57,0-1.36,0-1.66.36-2.14,2.43-4.18,4.94-6.37,7.57h36.12v-2.17q0-71.75,0-143.49a4,4,0,0,0-1.29-3.14M149.6,41.3c-5.78,0-11.56,0-17.34,0-1.31,0-1.69-.43-1.68-1.68,0-7.36,0-14.72,0-22.08a7.7,7.7,0,0,1,.13-1.07l24.87,24.8Z" class="cls-4" transform="translate(0 0)"/>
                <path d="M28.88,41.85a15.59,15.59,0,0,1,4.76.65,9.07,9.07,0,0,1,3.3,1.8A7.08,7.08,0,0,1,38.84,47a9.45,9.45,0,0,1,.62,3.46,9.83,9.83,0,0,1-.65,3.62,7.4,7.4,0,0,1-2,2.83,9.15,9.15,0,0,1-3.31,1.84,15,15,0,0,1-4.67.66H25.36v9.22H19.82V41.85Zm0,13.34a5.09,5.09,0,0,0,3.81-1.26A4.75,4.75,0,0,0,33.9,50.5a5.2,5.2,0,0,0-.31-1.82,3.6,3.6,0,0,0-.92-1.4,4.13,4.13,0,0,0-1.56-.9,7.12,7.12,0,0,0-2.23-.31H25.36v9.13Z" class="cls-5" transform="translate(0 0)"/>
                <path d="M67,55.25a14.41,14.41,0,0,1-1,5.4,12.29,12.29,0,0,1-2.79,4.24,12.8,12.8,0,0,1-4.33,2.77,15.21,15.21,0,0,1-5.62,1H43V41.85H53.3a15.19,15.19,0,0,1,5.62,1,12.68,12.68,0,0,1,4.33,2.78A12.39,12.39,0,0,1,66,49.87a14.29,14.29,0,0,1,1,5.38m-5.69,0a12.08,12.08,0,0,0-.56-3.79,8,8,0,0,0-1.59-2.85,6.92,6.92,0,0,0-2.52-1.79,8.61,8.61,0,0,0-3.37-.63H48.57V64.32H53.3a8.72,8.72,0,0,0,3.37-.62,6.76,6.76,0,0,0,2.52-1.79,8,8,0,0,0,1.59-2.85,12.14,12.14,0,0,0,.56-3.81" class="cls-5" transform="translate(0 0)"/>
                <polygon points="76.69 46.2 76.69 53.6 86.33 53.6 86.33 57.97 76.69 57.97 76.69 68.66 71.11 68.66 71.11 41.85 88.18 41.85 88.18 46.2 76.69 46.2" class="cls-5"/>
            </g>
        </g>
    </g>
</svg>
