<svg width="1970" height="588" viewBox="0 0 1970 588" fill="none" xmlns="http://www.w3.org/2000/svg">
<path fill-rule="evenodd" clip-rule="evenodd" d="M305.5 0.59399C279.131 2.61599 256.765 6.01399 236.935 11.01C222.915 14.543 201.505 21.568 191.307 25.982L184.5 28.928H323.5H462.5L455.5 25.888C430.682 15.108 390.623 5.19399 359 2.00499C347.69 0.86499 313.672 -0.0330103 305.5 0.59399ZM1653.72 1.10999C1632.19 2.76499 1606.92 7.78099 1585.94 14.564C1575.05 18.083 1551 27.742 1551 28.595C1551 28.818 1607.59 28.963 1676.75 28.918L1802.5 28.836L1795.19 25.423C1755.03 6.65999 1701.41 -2.55501 1653.72 1.10999ZM528 59.606C528 59.939 529.279 61.852 530.843 63.856C548.844 86.93 558.997 126.932 558.999 174.789C559.002 223.944 547.409 259.134 521.952 287.25L515.841 294L521.952 300.75C542.895 323.88 554.218 351.52 558.099 388.982C559.576 403.24 558.702 440.186 556.536 455C552.846 480.245 545.343 507.46 538.142 521.721C536.414 525.143 535 528.181 535 528.471C535 528.762 563.206 529 597.68 529H660.36L655.93 525.327C634.958 507.941 621.615 484.951 615.604 455.849C612.592 441.27 605.668 364.022 603.919 325.5C602.773 300.251 603.266 268.972 605.099 250.72C609.184 210.02 630.543 178.39 666 160.534C689.567 148.665 712.949 143.883 747.5 143.864C824.799 143.823 868.378 166.723 894.423 221.071C907.125 247.576 916.182 279.711 921.178 316C923.77 334.828 924.764 383.343 923.056 407.624C919.551 457.436 914.37 483.55 903.852 504.415C899.191 513.663 897.386 516.432 891.248 523.75L886.845 529H933.701H980.556L989.244 428.25C996.326 346.122 998.019 322.787 998.402 302C998.66 287.975 999.581 269.525 1000.45 261C1004.29 223.213 1007.23 201.421 1009.57 193.373C1018.83 161.403 1042.81 139.672 1079.42 130.085C1095.59 125.849 1108.21 124.54 1132.5 124.581C1154.13 124.617 1156.08 124.776 1165.22 127.245C1191.85 134.437 1209.56 151.182 1217.83 177C1222.75 192.348 1225.38 217.404 1225.34 248.5C1225.29 287.151 1218.78 319.941 1205.42 348.883C1194.16 373.26 1175.13 391.13 1151.38 399.618C1126.22 408.611 1087.16 410.459 1062.14 403.84C1057.94 402.73 1053.83 401.749 1053.02 401.661C1051.78 401.526 1050.7 411.042 1046.37 460.5C1043.52 492.95 1040.99 521.638 1040.74 524.25L1040.29 529H1193.81H1347.33L1340.88 522.25C1326.29 506.981 1317.58 490.13 1313.01 468.319C1309.68 452.42 1308.34 416.16 1309.81 381.733C1311.53 341.395 1318.3 265.288 1321.62 249C1331.8 198.966 1366.39 165.595 1421.5 152.641C1445.63 146.969 1473 144.481 1502.41 145.287C1537.52 146.25 1557.88 151.46 1577.55 164.519C1603.16 181.513 1618 208.852 1623.97 250C1628.34 280.134 1629.44 297.118 1629.47 334.5C1629.51 377.382 1627.67 395.407 1620 427.613C1605.35 489.113 1581.22 525.992 1543.13 545.053C1538.8 547.224 1534.74 549 1534.12 549C1530.81 549 1534.47 551.361 1547.75 557.789C1578.74 572.789 1606.57 581.118 1640 585.403C1684.76 591.14 1733.27 585.801 1775.44 570.496C1792.96 564.14 1797 562.197 1797 560.139C1797 555.827 1792.77 513.648 1790.48 495.124C1784.26 444.766 1775.72 403.849 1764.78 372C1742.63 307.55 1694.64 205.636 1640.2 107.5L1630.22 89.5L1529.84 89.245L1429.47 88.991L1414.49 73.995L1399.53 59H963.763C724.093 59 528 59.273 528 59.606ZM81.677 99.25C37.613 144.88 10.571 199.693 2.37002 260C0.0560215 277.018 0.0560215 310.982 2.37002 328C12.723 404.13 53.252 471.712 117.5 519.976C132.489 531.236 145 539.433 145 537.993C145 534.591 149.519 493.46 151.591 478C159.983 415.391 170.407 371.53 185.874 333.75L189.865 324H138.933H88V294V264H154.386H220.772L225.063 256.75C249.274 215.842 287.712 161.52 327.665 111.75L345.927 89H218.751H91.575L81.677 99.25ZM407.302 109.29C365.81 158.047 323.535 213.751 297.624 253.808L291.031 264H367.806C452.837 264 449.654 264.221 463.233 257.383C471.706 253.116 481.727 243.523 486.865 234.761C495.58 219.9 499.357 201.61 499.309 174.5C499.236 132.975 490.343 102.212 475.45 91.965L471.14 89L447.82 89.04L424.5 89.08L407.302 109.29ZM1699 89.483C1699 89.749 1705.32 101.787 1713.05 116.233C1769.1 220.987 1813.68 321.523 1829.38 378.569C1838.61 412.115 1846.46 456.996 1852.04 508C1853.21 518.725 1854.24 527.574 1854.33 527.664C1854.99 528.312 1877.64 508.032 1887.06 498.365C1933.84 450.369 1962.32 389.094 1968.97 322.144C1970.29 308.836 1970.29 279.164 1968.97 265.856C1962.66 202.352 1935.16 140.73 1893.03 95.692L1886.77 89H1792.89C1741.25 89 1699 89.218 1699 89.483ZM1118.31 183.975C1099.85 185.62 1086.06 189.431 1077.27 195.317C1073.67 197.73 1071.73 200.073 1069.25 205C1066.28 210.921 1065.77 213.369 1063.51 232.5C1059.26 268.527 1057.9 286.784 1057.86 308.156C1057.83 326.59 1058.04 329.292 1059.8 333.271C1062.17 338.647 1067.12 342.799 1074.23 345.378C1081.59 348.051 1106.1 348.794 1118 346.705C1140.16 342.812 1147.49 335.872 1156.32 310.408C1165.43 284.143 1168.07 254.3 1164.53 217.733C1162.18 193.567 1159.55 187.384 1150.67 185.146C1144.48 183.589 1128.95 183.026 1118.31 183.975ZM730 203.623C698.083 207.701 678.943 218.156 669.978 236.408C664.15 248.272 663.595 253.413 663.545 296C663.497 336.792 663.826 342.641 669.561 403.159C671.658 425.285 673.824 442.927 675.024 447.659C682.504 477.16 703.611 491.713 749 498.664C765.533 501.196 808.161 501.244 819.39 498.743C841.715 493.772 851.654 482.971 857.339 457.5C860.813 441.938 865.004 394.055 864.996 370.017C864.98 322.125 855.204 275.48 838.328 242.778C833.258 232.955 823.798 222.004 816.131 217.084C802.924 208.609 781.603 204.067 752.5 203.527C742.05 203.334 731.925 203.377 730 203.623ZM1475 204.961C1425.54 208.408 1397.78 220.657 1385.85 244.302C1381.02 253.859 1379.2 263.421 1376.03 295.856C1369.91 358.524 1369.58 364.177 1369.55 407.5C1369.53 453.117 1369.94 457.049 1376.15 469.644C1387.88 493.476 1421.26 505.254 1467.88 502.011C1520.19 498.372 1538.41 485.094 1554.5 438.868C1561.47 418.837 1565.72 399.946 1568.65 375.924C1573.18 338.747 1568.82 264.377 1560.58 238.422C1557.58 228.951 1551.88 219.659 1546.63 215.658C1541.5 211.756 1532.98 208.452 1523.3 206.617C1513.16 204.693 1490.16 203.904 1475 204.961ZM250.875 334.75C232.301 374.461 222.912 406.949 214.056 462.153C209.935 487.837 203 550.844 203 562.592V566.814L215.75 570.872C238.898 578.239 259.113 582.549 284.136 585.451C300.528 587.352 328.92 588.49 336.455 587.549L342.364 586.811L333.432 583.124C310.894 573.823 284.796 556.611 256.076 532.106C249.391 526.402 244.052 521.381 244.211 520.948C244.594 519.905 284.134 478 284.735 478C284.991 478 288.418 480.863 292.35 484.362C309.887 499.967 333.595 516.746 349.19 524.589C359.969 530.01 369.164 532.606 382.877 534.1C403.959 536.396 453.7 533.08 460.567 528.921C467.478 524.735 480.311 506.091 485.743 492.344C498.749 459.432 503.305 411.709 496.516 379.5C490.494 350.927 474.086 331.685 450.505 325.543C445.367 324.205 432.051 324 350.241 324H255.903L250.875 334.75Z" fill="black"/>
</svg>
