<?xml version="1.0" encoding="utf-8"?><svg viewBox="0 0 24 24" xmlns="http://www.w3.org/2000/svg" xmlns:xlink="http://www.w3.org/1999/xlink"><style>:root>svg{display:none}:root>svg:target{display:block}</style><svg viewBox="0 0 20 20" fill="none" class="aui-icon" id="catalog-filter" xmlns="http://www.w3.org/2000/svg"><path fill-rule="evenodd" clip-rule="evenodd" d="M6 5.75a1.75 1.75 0 013.5-.055.506.506 0 000 .11A1.75 1.75 0 016 5.75zM7.75 3c1.348 0 2.47.97 2.705 2.25H18.5a.5.5 0 010 1h-8.045a2.751 2.751 0 01-5.41 0H1.5a.5.5 0 110-1h3.545A2.75 2.75 0 017.75 3zm2.75 11.25a1.75 1.75 0 013.5-.014v.028a1.75 1.75 0 01-3.5-.014zm4.455.5a2.75 2.75 0 01-5.41 0H1.504a.5.5 0 010-1h8.041a2.75 2.75 0 015.41 0h3.549a.5.5 0 010 1h-3.55z" fill="#000"/></svg><svg fill="none" viewBox="0 0 18 18" id="clock" xmlns="http://www.w3.org/2000/svg"><path fill-rule="evenodd" clip-rule="evenodd" d="M2 9.5C2 5.36 5.353 2 9.492 2 13.64 2 17 5.36 17 9.5c0 4.14-3.36 7.5-7.508 7.5C5.353 17 2 13.64 2 9.5zm1.5 0c0 3.315 2.685 6 6 6s6-2.685 6-6-2.685-6-6-6-6 2.685-6 6zm5.25-3.75h1.125v3.938l3.375 2.002-.563.923L8.75 10.25v-4.5z" fill="#757575"/></svg><svg fill="none" viewBox="0 0 18 18" id="delivery-geo" xmlns="http://www.w3.org/2000/svg"><path d="M9 1.5a5.246 5.246 0 00-5.25 5.25C3.75 10.688 9 16.5 9 16.5s5.25-5.813 5.25-9.75A5.246 5.246 0 009 1.5zm0 7.125a1.876 1.876 0 11.001-3.751A1.876 1.876 0 019 8.625z" fill="#757575"/></svg><svg fill="none" viewBox="0 0 24 24" id="geo-header" xmlns="http://www.w3.org/2000/svg"><path fill-rule="evenodd" clip-rule="evenodd" d="M7 11a5 5 0 0110 0c0 2.232-1.192 4.243-2.485 5.726a13.778 13.778 0 01-1.805 1.73 7.394 7.394 0 01-.71.5 7.394 7.394 0 01-.71-.5 13.778 13.778 0 01-1.805-1.73C8.192 15.243 7 13.232 7 11zm5-6a6 6 0 00-6 6c0 2.58 1.368 4.82 2.73 6.383.687.788 1.386 1.42 1.94 1.858.278.219.524.393.72.515.097.06.188.113.268.152.04.019.085.038.13.054A.655.655 0 0012 20a.655.655 0 00.211-.038c.046-.015.09-.035.13-.054.081-.04.172-.091.27-.152a8.34 8.34 0 00.718-.515 14.771 14.771 0 001.94-1.858C16.632 15.82 18 13.581 18 11a6 6 0 00-6-6zm-1 6a1 1 0 112 0 1 1 0 01-2 0zm1-2a2 2 0 100 4 2 2 0 000-4z" fill="#141415"/></svg><svg viewBox="0 0 24 24" id="icon-arrow" xmlns="http://www.w3.org/2000/svg"><path d="M12 8c.31.009.595.125.826.376l5.622 5.817c.195.197.302.447.302.742A1.05 1.05 0 0117.702 16c-.284 0-.559-.116-.763-.322l-4.93-5.128-4.948 5.128a1.1 1.1 0 01-.763.322 1.05 1.05 0 01-1.048-1.065c0-.295.107-.545.302-.742l5.631-5.817c.24-.25.506-.376.817-.376z"/></svg><svg fill="none" viewBox="0 0 24 24" id="icon-catalog" xmlns="http://www.w3.org/2000/svg"><path fill-rule="evenodd" clip-rule="evenodd" d="M7.5 3A1.5 1.5 0 006 4.5h12A1.5 1.5 0 0016.5 3h-9zm-3 4.5A1.5 1.5 0 016 6h12a1.5 1.5 0 011.5 1.5h-15zM3 11.25A2.25 2.25 0 015.25 9h13.5A2.25 2.25 0 0121 11.25v7.5A2.25 2.25 0 0118.75 21H5.25A2.25 2.25 0 013 18.75v-7.5zm2.25-.75a.75.75 0 00-.75.75v7.5c0 .414.336.75.75.75h13.5a.75.75 0 00.75-.75v-7.5a.75.75 0 00-.75-.75H5.25z" fill="#3131C4"/></svg><svg viewBox="0 0 20 20" fill="#e63737" id="icon-check" xmlns="http://www.w3.org/2000/svg"><path fill-rule="evenodd" clip-rule="evenodd" d="M16.782 5.218a.75.75 0 010 1.06L8.03 15.03a.75.75 0 01-1.06 0l-3.752-3.752a.75.75 0 111.06-1.06L7.5 13.439l8.222-8.221a.75.75 0 011.06 0z"/></svg><svg class="hclose" viewBox="0 0 24 24" id="icon-close" xmlns="http://www.w3.org/2000/svg"><path fill-rule="evenodd" clip-rule="evenodd" d="M6.28 5.22a.75.75 0 00-1.06 1.06L10.94 12l-5.72 5.72a.75.75 0 101.06 1.06L12 13.06l5.72 5.72a.75.75 0 101.06-1.06L13.06 12l5.72-5.72a.75.75 0 00-1.06-1.06L12 10.94 6.28 5.22z"/></svg><svg class="iui-icon" viewBox="0 0 24 24" id="icon-delivery-point" xmlns="http://www.w3.org/2000/svg"><path fill-rule="evenodd" clip-rule="evenodd" d="M4.5 18.664V8.02l3.75-1.875v10.652c-.049.02-.097.042-.144.066L4.5 18.664zm5.25-1.868V6.144l4.356 2.177c.047.024.095.046.144.066v10.652l-4.356-2.177a2.05 2.05 0 00-.144-.066zm6 2.243l3.75-1.875V6.52L15.894 8.32a1.983 1.983 0 01-.144.066v10.652zm-6.974-.836a.5.5 0 01.448 0l5.44 2.72a.75.75 0 00.671 0l5.25-2.624a.75.75 0 00.415-.671V5.305a.75.75 0 00-1.085-.67L15.224 6.98a.5.5 0 01-.448 0l-5.44-2.72a.75.75 0 00-.671 0l-5.25 2.624A.75.75 0 003 7.555v12.323a.75.75 0 001.085.67l4.691-2.345z"/></svg><svg class="jui-icon jtoggle-icon jup" viewBox="0 0 24 24" id="icon-dropdown" xmlns="http://www.w3.org/2000/svg"><path fill-rule="evenodd" clip-rule="evenodd" d="M5.22 9.22a.75.75 0 011.06 0L12 14.94l5.72-5.72a.75.75 0 111.06 1.06l-6.25 6.25a.75.75 0 01-1.06 0l-6.25-6.25a.75.75 0 010-1.06z"/></svg><svg fill="none" viewBox="0 0 24 24" id="icon-favorites" xmlns="http://www.w3.org/2000/svg"><path fill-rule="evenodd" clip-rule="evenodd" d="M7.5 5.5c-2.23 0-4 1.81-4 4 0 .928.377 1.944 1.049 3.01.668 1.062 1.592 2.117 2.602 3.112 1.407 1.385 2.88 2.566 4.02 3.478.302.243.581.466.829.67.248-.204.527-.427.83-.67 1.138-.912 2.612-2.093 4.019-3.478 1.01-.995 1.934-2.05 2.602-3.111.672-1.067 1.049-2.083 1.049-3.011 0-2.191-1.769-4-4-4-2.153 0-3.426 1.702-3.774 2.247a.863.863 0 01-1.452 0C10.926 7.202 9.653 5.5 7.5 5.5zM2 9.5C2 6.49 4.43 4 7.5 4c2.231 0 3.725 1.302 4.5 2.216C12.775 5.302 14.269 4 16.5 4 19.57 4 22 6.491 22 9.5c0 1.322-.53 2.619-1.28 3.81-.753 1.197-1.766 2.344-2.819 3.38-1.458 1.437-3.093 2.748-4.25 3.677-.486.39-.888.712-1.157.947a.75.75 0 01-.988 0c-.27-.235-.67-.558-1.156-.947-1.158-.929-2.793-2.24-4.251-3.676-1.053-1.037-2.066-2.184-2.82-3.381C2.53 12.119 2 10.822 2 9.5z" fill="#141415"/></svg><svg class="lui-icon lgeo-icon" viewBox="0 0 24 24" id="icon-geo" xmlns="http://www.w3.org/2000/svg"><path fill-rule="evenodd" clip-rule="evenodd" d="M5.5 10a6.5 6.5 0 0113 0c0 2.91-1.556 5.553-3.254 7.513a18.228 18.228 0 01-2.369 2.284 9.683 9.683 0 01-.877.63 9.7 9.7 0 01-.877-.63 18.23 18.23 0 01-2.369-2.284C7.056 15.553 5.5 12.91 5.5 10zM12 2a8 8 0 00-8 8c0 3.433 1.819 6.416 3.62 8.495a19.72 19.72 0 002.57 2.476c.367.292.694.526.955.69.13.082.252.153.363.206.054.027.117.055.182.078.05.017.168.055.31.055.143 0 .26-.038.31-.055.065-.023.128-.05.182-.078a3.92 3.92 0 00.363-.206c.26-.164.588-.398.955-.69a19.724 19.724 0 002.57-2.476C18.18 16.415 20 13.433 20 10a8 8 0 00-8-8zm-1.5 8a1.5 1.5 0 113 0 1.5 1.5 0 01-3 0zM12 7a3 3 0 100 6 3 3 0 000-6z" fill="#141415"/></svg><svg class="mui-icon" viewBox="0 0 24 24" id="icon-message" xmlns="http://www.w3.org/2000/svg"><path fill-rule="evenodd" clip-rule="evenodd" d="M5.56 7h12.88l-5.556 5.556a1.25 1.25 0 01-1.768 0L5.561 7zM4.5 15.94V8.06L8.44 12 4.5 15.94zM5.56 17h12.88l-3.94-3.94-.556.556a2.75 2.75 0 01-3.889 0l-.555-.555L5.56 17zm10-5l3.94 3.94V8.06L15.56 12zM5 5.5a2 2 0 00-2 2v9a2 2 0 002 2h14a2 2 0 002-2v-9a2 2 0 00-2-2H5z"/></svg><svg fill="none" viewBox="0 0 24 24" id="icon-my-order" xmlns="http://www.w3.org/2000/svg"><path fill-rule="evenodd" clip-rule="evenodd" d="M12 2.5c-1.76 0-3 1.388-3 3h6c0-1.612-1.24-3-3-3zm-4.5 7V7h-2v5.25a.75.75 0 01-1.5 0V5.5h3.5C7.5 3.112 9.36 1 12 1c2.64 0 4.5 2.112 4.5 4.5H20v14.25A2.25 2.25 0 0117.75 22h-4.5a.75.75 0 010-1.5h4.5a.75.75 0 00.75-.75V7h-2v2.5H15V7H9v2.5H7.5zm4.774 6.532a.75.75 0 10-1.06-1.06l-5.219 5.217-2.215-2.215a.75.75 0 00-1.06 1.06l2.745 2.746a.75.75 0 001.06 0l5.749-5.748z" fill="#141415"/></svg><svg class="oui-icon" viewBox="0 0 24 24" id="icon-question" xmlns="http://www.w3.org/2000/svg"><path fill-rule="evenodd" clip-rule="evenodd" d="M12 3.5a8.5 8.5 0 100 17 8.5 8.5 0 000-17zM2 12C2 6.477 6.477 2 12 2s10 4.477 10 10-4.477 10-10 10S2 17.523 2 12zm11 4a1 1 0 11-2 0 1 1 0 012 0zm-2.51-6.633C10.6 8.674 11.165 8 12 8c.823 0 1.382.653 1.504 1.333.02.427-.07.7-.19.905-.135.23-.335.423-.616.658l-.146.121c-.513.416-1.302 1.056-1.302 2.233a.75.75 0 001.5 0c0-.44.222-.626.832-1.137l.08-.067c.3-.252.672-.583.946-1.049.284-.485.436-1.068.39-1.794l-.002-.035-.005-.035C14.8 7.926 13.773 6.5 12 6.5c-1.773 0-2.8 1.426-2.99 2.633a.75.75 0 101.48.234z"/></svg><svg fill="none" viewBox="0 0 18 18" id="icon-star" xmlns="http://www.w3.org/2000/svg"><path d="M9 12.953l4.635 2.797-1.23-5.273L16.5 6.93l-5.393-.457L9 1.5 6.893 6.473 1.5 6.93l4.095 3.547-1.23 5.273L9 12.953z" fill="#F5A623"/></svg></svg>