<svg width="18" height="18" viewBox="0 0 18 18" fill="none" xmlns="http://www.w3.org/2000/svg">
<path d="M8.99997 15.75C8.84247 15.75 8.68497 15.6975 8.54996 15.6C8.44497 15.5175 5.95497 13.6275 4.61997 12.27C2.03246 9.64501 0.172465 5.93251 2.69997 3.39001C3.50247 2.58001 4.41747 2.19751 5.44497 2.25751C6.95247 2.34001 8.27247 3.39751 8.99997 4.11001C9.72747 3.39751 11.0475 2.34001 12.555 2.25751C13.5825 2.19751 14.4975 2.58001 15.3 3.39001C17.8275 5.93251 15.96 9.64501 13.38 12.27C12.045 13.6275 9.55497 15.5175 9.44997 15.6C9.31497 15.6975 9.15747 15.75 8.99997 15.75Z" fill="#E53935"/>
</svg>
