<svg width="444" height="106" viewBox="0 0 444 106" fill="none" xmlns="http://www.w3.org/2000/svg">
<path d="M431.007 0.81163H12.7194C6.02904 0.81163 0.605438 6.48531 0.605438 13.4841V93.2464C0.605438 100.245 6.02904 105.919 12.7194 105.919H431.007C437.698 105.919 443.121 100.245 443.121 93.2464V13.4841C443.121 6.48531 437.698 0.81163 431.007 0.81163Z" fill="#003160"/>
<path d="M395.905 34.1627V36.3245H397.088C397.472 36.3598 397.858 36.2985 398.214 36.1456C398.514 36.0263 398.642 35.6983 398.685 35.1914C398.727 34.6845 398.514 34.4758 398.214 34.3416C397.907 34.1945 397.568 34.1329 397.231 34.1627H395.905ZM395.905 37.1444V40.1262H394.879V33.2383H397.388C398.008 33.1981 398.623 33.3709 399.141 33.7303C399.49 34.1153 399.692 34.6213 399.708 35.152C399.724 35.6826 399.552 36.2008 399.226 36.6077C398.881 36.9082 398.46 37.0996 398.015 37.1594L399.896 40.1411H398.77L397.031 37.1594L395.905 37.1444ZM392.457 36.6823C392.438 37.5903 392.655 38.4866 393.084 39.2764C393.473 40.0161 394.043 40.6337 394.737 41.0655C395.45 41.4945 396.258 41.7203 397.081 41.7203C397.904 41.7203 398.712 41.4945 399.426 41.0655C400.114 40.6216 400.686 40.0071 401.093 39.2764C401.495 38.4817 401.705 37.5962 401.705 36.6972C401.705 35.7981 401.495 34.9127 401.093 34.118C400.69 33.3885 400.116 32.7781 399.426 32.3438C398.716 31.9043 397.906 31.6725 397.081 31.6725C396.256 31.6725 395.447 31.9043 394.737 32.3438C394.035 32.7783 393.463 33.408 393.084 34.1627C392.661 34.944 392.444 35.8291 392.457 36.727V36.6823ZM397.088 42.6905C396.089 42.7035 395.105 42.4357 394.238 41.9153C393.37 41.412 392.65 40.6695 392.157 39.7684C391.613 38.8292 391.327 37.7509 391.331 36.6525C391.334 35.5597 391.619 34.4881 392.157 33.5514C392.647 32.6555 393.368 31.9219 394.238 31.4344C395.102 30.9048 396.087 30.6269 397.088 30.6293C398.091 30.6326 399.076 30.9094 399.946 31.4322C400.816 31.9551 401.54 32.7061 402.048 33.6111C402.575 34.5518 402.856 35.6216 402.86 36.7121C402.861 37.8081 402.581 38.8844 402.048 39.828C401.54 40.7123 400.83 41.4502 399.981 41.9749C399.113 42.49 398.13 42.7574 397.131 42.7502" fill="white"/>
<path d="M368.143 77.6816L351.326 48.5199H351.198L344.072 71.4944C343.805 72.0174 343.665 72.6011 343.665 73.194C343.665 73.7869 343.805 74.3707 344.072 74.8936C345.256 75.6824 346.647 76.063 348.048 75.982L347.763 77.0554H334.78L335.079 75.982C338.471 75.8329 340.537 74.4414 341.279 71.8075L349.545 45.4189L348.789 44.1963C348.565 43.6391 348.148 43.1915 347.621 42.944C346.852 42.7424 346.061 42.6472 345.269 42.6607L345.54 41.4382H361.046L373.872 63.8015H374.029L379.473 46.1941C380.343 43.7342 378.875 42.5116 375.354 42.6607L375.782 41.4382H388.324L387.882 42.6607C386.549 42.5773 385.221 42.8872 384.048 43.5553C383.118 44.2372 382.439 45.2315 382.124 46.373L372.404 77.6816H368.143Z" fill="white"/>
<path d="M298.409 32.1649C297.265 33.2272 296.45 34.6242 296.072 36.1754L285.44 70.5701C284.921 71.7755 284.781 73.1226 285.041 74.4166C285.355 75.1769 286.809 75.49 289.189 75.49H290.742L290.286 76.9809H262.025L262.595 75.49C264.355 75.7399 266.146 75.4714 267.768 74.7147C268.975 73.636 269.802 72.1669 270.12 70.5403L275.136 54.3642H259.06L254.044 70.5403C253.303 72.866 253.174 74.2526 253.745 74.8638C254.315 75.4751 255.954 75.6391 258.761 75.49L258.334 76.9809H230.158L230.742 75.49C231.582 75.5647 232.425 75.5647 233.265 75.49C234.317 75.4215 235.357 75.211 236.357 74.8638C237.601 73.7574 238.429 72.2254 238.695 70.5403L249.483 36.1456C250.016 34.9443 250.165 33.5961 249.911 32.2991C249.483 31.6878 248.3 31.2107 246.077 31.2107H244.467L244.894 29.7198H273.056L272.642 31.2107H271.146C269.605 31.0772 268.063 31.4583 266.742 32.2991C265.744 33.3727 265.027 34.6975 264.661 36.1456L260.072 51.0544H276.177L280.88 36.1456C281.464 33.9987 281.621 32.5973 281.037 32.0009C280.452 31.4045 278.97 31.2107 276.305 31.2107L276.747 29.7198H305.065L304.481 31.2107H302.713C301.234 31.1034 299.755 31.4232 298.438 32.1351" fill="white"/>
<path d="M312.333 57.3012L307.759 63.8015H316.922L315.426 53.1565L312.333 57.3012ZM312.333 65.9483H306.291L302.457 71.3453C301.999 71.9647 301.607 72.6346 301.288 73.3431C301.003 74.4464 301.132 75.0576 301.744 75.3409C302.827 75.9118 304.047 76.1349 305.25 75.982L304.823 77.0554H293.165L293.464 75.982C294.679 75.9355 295.852 75.504 296.827 74.7445C297.927 73.8786 298.888 72.8372 299.678 71.6584C299.963 71.3453 300.262 70.8831 300.561 70.5701L312.348 53.7529L321.055 41.4382H324.447L329.464 73.194C329.592 74.4464 329.892 75.2067 330.177 75.3409C330.462 75.4751 330.889 75.8329 331.801 75.982L331.516 77.0554H312.476L312.761 75.982C314.186 75.982 315.283 75.8329 315.725 75.8329C317.051 75.5198 317.792 75.0576 318.091 74.1184C318.361 73.3809 318.41 72.5752 318.234 71.8075L317.222 65.9483H312.333Z" fill="white"/>
<path d="M40.8666 76.5932L41.3226 75.1024C43.5516 75.4081 45.816 74.9698 47.7929 73.85C48.9289 72.5889 49.7468 71.0518 50.1729 69.3774L60.648 35.6089C61.3606 33.2831 61.3605 31.7624 60.7905 31.2853C60.2204 30.8082 58.2822 30.5398 55.0898 30.6889L55.5886 29.0639H85.1039C92.0303 29.0639 97.2036 31.1064 100.781 35.1169C104.615 39.4255 105.498 45.4189 103.161 53.0075C100.992 59.7078 96.8005 65.4895 91.2179 69.4817C86.8527 72.8904 81.7526 75.1228 76.3676 75.982C74.0082 76.3535 71.6275 76.5577 69.2418 76.5932H40.8666ZM76.4959 34.0285L65.351 69.6457C64.9679 70.5118 64.8106 71.4685 64.895 72.4188C65.2228 73.0599 66.0921 73.3431 67.4175 73.3431C70.6716 73.4585 73.8606 72.3712 76.4246 70.2719C76.99 69.8419 77.528 69.3738 78.0351 68.8705C80.9852 65.7992 83.4792 61.0135 85.5457 54.394C90.1063 39.4851 88.1965 31.8369 79.6598 31.8369H76.9662L76.4959 34.0285Z" fill="white"/>
<path d="M126.049 73.0598C129.127 70.5701 131.75 65.9483 133.987 59.0157C137.237 48.2366 136.353 42.8247 130.923 42.8247C129.158 42.8505 127.448 43.4728 126.049 44.5989C125.186 45.2923 124.389 46.0711 123.669 46.9247C121.067 50.4117 119.132 54.3903 117.968 58.643C116.777 62.099 116.178 65.7482 116.201 69.4221C116.486 72.8362 118.111 74.6849 121.047 74.6849C122.848 74.6396 124.599 74.0549 126.092 73.0002L126.049 73.0598ZM126.092 40.9015C127.944 40.5924 129.817 40.4379 131.693 40.4393C138.477 40.4393 143.18 42.124 145.831 45.8363C148.325 49.0864 148.781 53.3951 147.142 58.4641C145.7 63.2554 142.878 67.4631 139.061 70.5104C135.366 73.7442 130.868 75.8124 126.092 76.474C124.205 76.7719 122.3 76.9263 120.391 76.9361C112.852 76.9361 107.992 74.7744 105.655 70.4508C104.739 68.6253 104.212 66.6135 104.111 64.5544C104.01 62.4952 104.338 60.4377 105.071 58.5237C106.617 53.4942 109.658 49.1122 113.75 46.0152C117.441 43.2814 121.692 41.4892 126.163 40.7822" fill="white"/>
<path d="M170.928 73.0598C174.02 70.5701 176.628 65.9483 178.894 59.0157C182.144 48.2366 181.246 42.8247 175.802 42.8247C174.038 42.8578 172.33 43.4794 170.928 44.5989C170.069 45.2927 169.277 46.0716 168.562 46.9247C165.96 50.4117 164.025 54.3903 162.861 58.643C161.677 62.1229 161.065 65.7878 161.051 69.4817C161.336 72.8958 162.947 74.7445 165.925 74.7445C167.713 74.6982 169.45 74.1132 170.928 73.0598V73.0598ZM170.928 40.9611C172.785 40.6527 174.663 40.4981 176.543 40.4989C183.327 40.4989 188.03 42.1836 190.695 45.8959C193.175 49.1461 193.631 53.4547 191.978 58.5237C190.542 63.3298 187.701 67.5433 183.854 70.5701C180.155 73.8064 175.652 75.8748 170.871 76.5336C168.984 76.8322 167.079 76.9866 165.17 76.9958C157.659 76.9958 152.814 74.834 150.448 70.5104C149.523 68.6883 148.99 66.6765 148.887 64.6162C148.783 62.5559 149.112 60.4968 149.849 58.5834C151.418 53.5613 154.46 49.1843 158.543 46.0749C162.222 43.3389 166.464 41.5464 170.928 40.8418" fill="white"/>
<path d="M230.956 44.8225C232.011 46.3134 232.011 48.3559 231.284 51.1438C231.113 51.4241 231.001 51.7392 230.956 52.0682C229.374 55.9296 226.11 58.5237 221.279 60.0892L225.184 73.3431C225.349 74.1439 225.794 74.8511 226.433 75.3256C227.071 75.8002 227.856 76.0077 228.633 75.9074L228.334 77.13H214.438L209.165 60.939H207.825L204.434 71.733C204.006 73.2238 203.864 74.3569 204.149 74.8191C204.605 75.7434 206.044 76.0565 208.282 75.9074L207.825 77.13H186.448L186.776 75.9074H188.13C189.159 75.9479 190.178 75.6789 191.065 75.1322C191.896 74.46 192.513 73.5398 192.833 72.4933L200.956 46.1941C201.369 44.8225 201.369 43.7342 200.956 43.2123C200.543 42.6905 199.018 42.288 196.966 42.452L197.265 41.3786H220.552C226.011 41.3786 229.403 42.452 230.985 44.7629L230.956 44.8225ZM214.467 43.4956H213.17L208.467 58.643H210.833C212.083 58.6606 213.323 58.3962 214.467 57.8677C217.16 56.7943 218.928 54.4834 219.968 50.9202C220.614 49.257 220.714 47.4165 220.253 45.6872C219.526 44.1963 218.172 43.4956 215.977 43.4956H214.467Z" fill="white"/>
</svg>
